# xmcd
#
# Track frame offsets:
#	150
#	20421
#	42375
#	60674
#	78428
#	99548
#	120024
#	140191
#	158986
#	179777
#	197668
#	218817
#
# Disc length: 3193 seconds
#
# Revision: 1
# Processed by: cddbd v1.5.2PL0 Copyright (c) Steve Scherf et al.
# Submitted via: audiograbber 1.83.01
#
DISCID=a80c770c
DTITLE=K Ravindran - Ravindra Sangeetham
DYEAR=1900
DGENRE=Soundtrack
TTITLE0=Ottakambi Nadham
TTITLE1=Leela Thilakam
TTITLE2=Rithumathiyay
TTITLE3=Thamara Poovilayalum
TTITLE4=Rajeevam Vidarum
TTITLE5=Devangane Nee
TTITLE6=Manasa Devi
TTITLE7=Vanamaala Choodi
TTITLE8=Manjani Konna
TTITLE9=Ponpularoli
TTITLE10=Maanam Ponmaanam
TTITLE11=Thengum Hridayam
EXTD=
EXTT0=
EXTT1=
EXTT2=
EXTT3=
EXTT4=
EXTT5=
EXTT6=
EXTT7=
EXTT8=
EXTT9=
EXTT10=
EXTT11=
PLAYORDER=
